<?xml version="1.0" encoding="UTF-8" standalone="no"?><!DOCTYPE svg PUBLIC "-//W3C//DTD SVG 1.1//EN" "http://www.w3.org/Graphics/SVG/1.1/DTD/svg11.dtd"><svg width="100%" height="100%" viewBox="0 0 100 100" version="1.1" xmlns="http://www.w3.org/2000/svg" xmlns:xlink="http://www.w3.org/1999/xlink" xml:space="preserve" xmlns:serif="http://www.serif.com/" style="fill-rule:evenodd;clip-rule:evenodd;stroke-linejoin:round;stroke-miterlimit:2;"><path d="M49.958,8.333c-23,0 -41.625,18.667 -41.625,41.667c0,23 18.625,41.667 41.625,41.667c23.042,0 41.709,-18.667 41.709,-41.667c0,-23 -18.667,-41.667 -41.709,-41.667Zm13.459,64.125l-13.417,-8.083l-13.417,8.083c-1.583,0.959 -3.541,-0.458 -3.125,-2.25l3.542,-15.25l-11.792,-10.208c-1.375,-1.208 -0.625,-3.5 1.209,-3.667l15.583,-1.333l6.083,-14.375c0.709,-1.708 3.125,-1.708 3.834,0l6.083,14.333l15.583,1.334c1.834,0.166 2.584,2.458 1.167,3.666l-11.792,10.209l3.542,15.291c0.417,1.792 -1.5,3.209 -3.083,2.25Z" style="fill:#546e7a;fill-rule:nonzero;"/><path d="M49.958,8.333c-23,0 -41.625,18.667 -41.625,41.667c0,23 18.625,41.667 41.625,41.667c23.042,0 41.709,-18.667 41.709,-41.667c0,-23 -18.667,-41.667 -41.709,-41.667Zm13.459,64.125l-13.417,-8.083l-13.417,8.083c-1.583,0.959 -3.541,-0.458 -3.125,-2.25l3.542,-15.25l-11.792,-10.208c-1.375,-1.208 -0.625,-3.5 1.209,-3.667l15.583,-1.333l6.083,-14.375c0.709,-1.708 3.125,-1.708 3.834,0l6.083,14.333l15.583,1.334c1.834,0.166 2.584,2.458 1.167,3.666l-11.792,10.209l3.542,15.291c0.417,1.792 -1.5,3.209 -3.083,2.25Z" style="fill:#fff;fill-opacity:0;fill-rule:nonzero;"/><clipPath id="_clip1"><path d="M49.958,8.333c-23,0 -41.625,18.667 -41.625,41.667c0,23 18.625,41.667 41.625,41.667c23.042,0 41.709,-18.667 41.709,-41.667c0,-23 -18.667,-41.667 -41.709,-41.667Zm13.459,64.125l-13.417,-8.083l-13.417,8.083c-1.583,0.959 -3.541,-0.458 -3.125,-2.25l3.542,-15.25l-11.792,-10.208c-1.375,-1.208 -0.625,-3.5 1.209,-3.667l15.583,-1.333l6.083,-14.375c0.709,-1.708 3.125,-1.708 3.834,0l6.083,14.333l15.583,1.334c1.834,0.166 2.584,2.458 1.167,3.666l-11.792,10.209l3.542,15.291c0.417,1.792 -1.5,3.209 -3.083,2.25Z" clip-rule="nonzero"/></clipPath><g clip-path="url(#_clip1)"><path d="M34.01,72.143l27.871,27.857l38.119,-33.47l-25.146,-24.91" style="fill-opacity:0.47;"/></g><path d="M63.417,72.458l-13.417,-8.083l-13.417,8.083c-1.583,0.959 -3.541,-0.458 -3.125,-2.25l3.542,-15.25l-11.792,-10.208c-1.375,-1.208 -0.625,-3.5 1.209,-3.667l15.583,-1.333l6.083,-14.375c0.709,-1.708 3.125,-1.708 3.834,0l6.083,14.333l15.583,1.334c1.834,0.166 2.584,2.458 1.167,3.666l-11.792,10.209l3.542,15.291c0.417,1.792 -1.5,3.209 -3.083,2.25Z" style="fill:#fff;fill-rule:nonzero;"/></svg>